<?xml version="1.0" encoding="utf-8"?><svg xmlns:xlink="http://www.w3.org/1999/xlink" id="Scene_1" image-rendering="auto" baseProfile="basic" version="1.1" x="0px" y="0px" width="600" height="600" viewBox="0 0 600 600" xmlns="http://www.w3.org/2000/svg"><g id="Scene 1_0.0"><path fill="#E9BDC9" d="M400,201.8Q391.5,205.25 372.35,216.05 348.5,229.55 340,233.8 321.65,243.05 310.25,245.2 302.8,246.6 287.9,245.4 285.1,245.2 260.6,242.5 244.2,240.7 236.15,240.9 225,241.25 222.35,245.2 218.05,251.65 221.2,277.35 221.75,281.65 227.85,318.05 228.75,323.55 225.55,334.4 223.95,339.7 218.35,354.8 213.6,367.75 212.25,373.8 210.2,382.85 213,385.9 217,390.3 225.7,387.8 231.75,386.1 243.25,379.75 257.55,371.85 261.4,370.15 270.95,365.9 275.8,367.5 282.4,369.65 289.2,374.7 292.9,377.45 300.1,384.05 306.35,389.8 309.5,391.75 314.35,394.8 318.4,394 326.75,392.4 336.4,363.4 338.95,355.7 343.85,338.75 348.35,323.3 350.45,317.35 352.45,311.75 364.75,293.3 371.95,282.55 389.2,257.1 421.5,208.35 415.65,201 412.35,196.85 400,201.8"/></g><defs/></svg>