<?xml version="1.0" encoding="utf-8"?><svg xmlns:xlink="http://www.w3.org/1999/xlink" id="Scene_1" image-rendering="auto" baseProfile="basic" version="1.1" x="0px" y="0px" width="600" height="600" viewBox="0 0 600 600" xmlns="http://www.w3.org/2000/svg"><g id="Scene 1_0.0"><path fill="#B5C5CD" d="M358.35,277.15Q340.3,271.05 334.15,266.6 311.05,249.9 300.4,244 283,234.4 274.55,237.55 269.8,239.35 266.85,245.2 264.7,249.55 262.8,258.1 261.7,262.95 259.5,273.25 257.25,282.05 254.15,287.45 250,294.7 241.85,304.2 237.2,309.6 228.05,319.7 220.6,328.25 217.8,333.65 214.1,340.65 216,345.7 217.6,349.95 221.65,352 224.3,353.35 230.5,354.65 237.75,356.15 241.15,357.35 247.45,359.65 252.15,363.9 256.25,367.65 256.6,381.15 256.7,385 255.75,408.25 255,425.8 256.6,434.3 258.8,446.35 266.2,448.25 273.95,450.25 284.15,437.45 290.85,429.05 303.5,406.75 317.85,381.5 324.25,372.25 336.3,354.7 346.35,349.95 352.15,347.2 368.5,343.75 397.95,337.6 398.35,337.5 415.75,333.4 424.6,328.85 435.85,323.1 435.9,315.65 435.95,308.1 422.8,300.7 412.85,295.05 392.45,288.2 368.8,280.7 358.35,277.15"/></g><defs/></svg>