<?xml version="1.0" encoding="utf-8"?><svg xmlns:xlink="http://www.w3.org/1999/xlink" id="Scene_1" image-rendering="auto" baseProfile="basic" version="1.1" x="0px" y="0px" width="600" height="600" viewBox="0 0 600 600" xmlns="http://www.w3.org/2000/svg"><g id="Scene 1_0.0"><path fill="#99AABF" d="M432.75,269.4Q446.55,261.35 444.85,255.45 442.05,245.55 388.65,247.15 350.9,248.25 300.7,254.3 261.5,259 238.6,265 208.5,272.8 207.4,282.6 206,294.95 226,309.1 233.85,314.65 249,323.45 257.9,328.6 278.8,340.55 306.75,356.9 318.9,362.45 339.45,371.8 346.65,367.5 351.95,364.35 353.6,358.4 354.85,353.7 354.1,345.65 352.8,335.8 352.2,330.55 351.2,321.1 351.95,314.45 352.7,308.15 368.1,299.65 376.9,294.85 401.1,284.4 424.15,274.45 432.75,269.4"/></g><defs/></svg>