<?xml version="1.0" encoding="utf-8"?><svg xmlns:xlink="http://www.w3.org/1999/xlink" id="Scene_1" image-rendering="auto" baseProfile="basic" version="1.1" x="0px" y="0px" width="600" height="600" viewBox="0 0 600 600" xmlns="http://www.w3.org/2000/svg"><g id="Scene 1_0.0"><path fill="#ECA08F" d="M462.35,262.5Q464.15,255.75 462.9,252.2 461.5,248.2 455.55,245.9 449.2,243.5 399.5,250.6 346.25,258.2 342.2,258 323.9,257.15 303.05,250.8 291.05,247.15 269.8,238.55 251.4,231.1 244.3,229.5 233.05,227.05 228.15,231.95 224.55,235.5 225.5,242.65 226.15,247.75 229.85,257.5 234.95,271.05 235.9,274.15 238.8,283.75 238.35,290.25 237.9,296.5 230.15,309.15 225.6,316.6 214.45,333 204.8,347.75 201.55,356.4 197.05,368.15 201.55,373.95 204.3,377.5 210.5,376.65 214.15,376.15 223.7,372.8 233.7,369.35 239.15,368.4 248.15,366.85 254.85,369.35 261.7,371.9 269.05,376.65 270.65,377.7 281,385.1 287.8,389.9 292.3,392 298.55,394.85 304.6,394.75 317.3,394.6 331.5,380.95 338.85,373.4 342.25,369.9 348.25,363.75 352.15,361.35 358.2,357.6 368.25,357.6 373.45,357.6 387.35,359.35 400.1,360.95 406.95,360.55 417.5,359.95 424.55,355.2 433.4,349.25 438.6,338.6 444.35,326.8 450.65,300 453,290 457.15,278 461.8,264.5 462.35,262.5"/></g><defs/></svg>