<?xml version="1.0" encoding="utf-8"?><svg xmlns:xlink="http://www.w3.org/1999/xlink" id="Scene_1" image-rendering="auto" baseProfile="basic" version="1.1" x="0px" y="0px" width="600" height="600" viewBox="0 0 600 600" xmlns="http://www.w3.org/2000/svg"><g id="Scene 1_0.0"><path fill="#B9A8D1" d="M356.65,287.4Q336.35,271.25 325.4,259.55 316.5,250.05 307,231.85 304,226.15 291.8,199.95 283.3,181.65 277.95,174.35 270.55,164.2 263.65,165.8 258.55,167 255.8,175.5 254.1,180.85 252.35,194.15 250.45,208.25 248.9,213.95 246.15,223.9 241.15,227.1 235.4,230.75 228.4,233.4 224.45,234.85 217.45,237.05 211.75,239.05 208.65,241.25 204.6,244.15 202.25,249.05 197.7,258.6 206.1,278.9 208.4,284.4 213.25,295.15 217.2,304.3 218.15,309.65 220.15,320.65 218.95,338.35 218.35,347.45 215.7,369.45 213.4,388 213.4,395.75 213.35,407.35 217.25,410 223.3,414.1 232.35,409.5 237.65,406.8 251.5,395.85 266.45,384.1 276.25,378.4 292.2,369.1 308.05,366.4 314.2,365.35 334.1,365.85 365,366.6 371.5,366.6 420.35,366.45 425.95,353.9 428.5,348.15 418.2,337.25 410.45,329.05 391.35,314.2 368.25,296.7 356.65,287.4"/></g><defs/></svg>