<?xml version="1.0" encoding="utf-8"?><svg xmlns:xlink="http://www.w3.org/1999/xlink" id="Scene_1" image-rendering="auto" baseProfile="basic" version="1.1" x="0px" y="0px" width="600" height="600" viewBox="0 0 600 600" xmlns="http://www.w3.org/2000/svg"><g id="Scene 1_0.0"><path fill="#CDC9BB" d="M425.35,262.4Q433.8,252 436.2,247.9 440.3,240.85 438.35,236.35 434.4,227.3 382.75,234.95 343.3,240.75 294.45,252.9 259.05,261.7 234.05,272.7 205.1,285.4 205.1,295.1 205.1,307.45 237.25,330.2 265.25,350.1 297.95,365 337.1,382.9 361.15,389.65 398.2,400.05 408.55,388 412.65,383.25 412.15,372.3 411.85,364.8 408.75,349.45 404.9,330.35 404.05,324 402.1,309.7 403.8,300.65 405.65,290.75 412.4,279.95 416.5,273.3 425.35,262.4"/></g><defs/></svg>