<?xml version="1.0" encoding="utf-8"?><svg xmlns:xlink="http://www.w3.org/1999/xlink" id="Scene_1" image-rendering="auto" baseProfile="basic" version="1.1" x="0px" y="0px" width="600" height="600" viewBox="0 0 600 600" xmlns="http://www.w3.org/2000/svg"><g id="Scene 1_0.0"><path fill="#FACD96" d="M352.6,289.15Q359.15,271.05 355.25,262.95 352.15,256.55 330.25,250.15 317.7,246.65 311.5,244.9 300.45,241.8 294.45,239.3 285.9,235.75 272,225.9 270.45,224.8 247.6,207.7 233.35,197 225.9,193 215.8,187.55 211.8,190.3 207.7,193.1 208.8,203.3 209.5,209.85 213.5,225.1 217.85,241.8 218.95,248.6 220.95,261.05 218.3,266.95 215.7,272.75 205.55,279 201.95,281.25 185.7,289.65 173.25,296.05 168.15,300.5 160.95,306.85 162.45,313.35 163.95,319.7 177.75,322.9 187.65,325.2 208.15,326.5 237.6,328.3 240.4,328.6 256.6,330.25 261.2,333.8 267.15,338.4 273.7,346.95 276.5,350.65 284.45,362.25 290.55,371.2 294.05,374.9 299.05,380.15 303.2,380.15 312.4,380.15 324.5,355.75 328.45,347.8 340.95,316.7 349,299.15 352.6,289.15"/></g><defs/></svg>