<?xml version="1.0" encoding="utf-8"?><svg xmlns:xlink="http://www.w3.org/1999/xlink" id="Scene_1" image-rendering="auto" baseProfile="basic" version="1.1" x="0px" y="0px" width="600" height="600" viewBox="0 0 600 600" xmlns="http://www.w3.org/2000/svg"><g id="Scene 1_0.0"><path fill="#B8C886" d="M355.25,239.85Q349.45,233.8 344.8,222.5 343,218.2 337.8,202.4 333.9,190.55 330.7,185.35 326.2,177.95 319.95,177.15 309.15,175.75 284.85,216.05 262.1,253.75 249.3,289.9 245.25,301.4 238.15,324.9 229.4,353.85 222.8,379.25 204.05,451.65 212.35,458 218.25,462.55 230.3,451.3 239,443.25 256.35,421.1 281.3,389.25 287.4,381.95 306.2,359.6 320.55,348.45 328.8,342 346.55,331.2 356.5,325.15 376.75,312.9 393.35,302.45 401,295.45 410.65,286.65 409.1,280.95 408.05,277.1 404.05,274.5 403.15,273.9 393.45,269.05 373.7,259.2 355.25,239.85"/></g><defs/></svg>