<?xml version="1.0" encoding="utf-8"?><svg xmlns:xlink="http://www.w3.org/1999/xlink" id="Scene_1" image-rendering="auto" baseProfile="basic" version="1.1" x="0px" y="0px" width="600" height="600" viewBox="0 0 600 600" xmlns="http://www.w3.org/2000/svg"><g id="Scene 1_0.0"><path fill="#EE8B9E" d="M342.2,169.3Q333.7,166.75 326.6,179.15 322.3,186.6 314.85,208.35 307.25,230.55 302.5,239.25 294.55,253.75 285,254.3 279.9,254.6 272.3,254.1 264,253.6 261.5,253.65 250.6,253.9 245.75,261.55 242.6,266.55 242.5,274.85 242.4,283.4 245.6,293.55 252.95,317 272.95,336.95 296.8,360.8 330.95,373.5 359.85,384.25 392.4,385.85 420.3,387.2 442.25,381.75 462.95,376.7 465.6,369.2 468.7,360.5 459.25,349.55 452.95,342.2 435.3,328.6 414.4,312.5 406.95,305.5 392.15,291.65 387.55,279.45 382.75,266.75 376.6,244.95 368,214.65 366.75,210.6 361.1,192.55 355.95,183.1 349.6,171.5 342.2,169.3"/></g><defs/></svg>