<?xml version="1.0" encoding="utf-8"?><svg xmlns:xlink="http://www.w3.org/1999/xlink" id="Scene_1" image-rendering="auto" baseProfile="basic" version="1.1" x="0px" y="0px" width="600" height="600" viewBox="0 0 600 600" xmlns="http://www.w3.org/2000/svg"><g id="Scene 1_0.0"><path fill="#F3A36A" d="M340,339.2Q342.4,338.65 354.05,345.35 360.95,349.35 378.2,359.6 412.4,379.05 418.5,371.1 421.45,367.25 411.7,355.3 405.25,347.35 386.75,328.75 364.9,306.8 356.3,297.35 339.9,279.25 333.2,267 326.55,254.85 318.95,238.1 311.15,220.65 307.8,213.55 302.2,201.75 298.15,196.5 293.2,190.1 288.35,190.15 283.55,190.2 280.75,197.05 279.25,200.7 276.5,213.3 273.75,225.7 270.95,232.35 266.6,242.75 259.55,247.85 250.65,254.35 240.8,257.3 234.55,259.2 225.45,260.15 216.95,261 214.5,261.9 210.05,263.55 208.9,268.25 206.75,276.9 223.75,292.35 226.3,294.7 240.5,306.8 251.75,316.4 258.4,323.05 269.15,333.8 283.9,350.2 296.05,363.7 299.25,366.4 308.35,374.25 319.4,372.55 330.4,370.85 332.5,361.5 333.15,358.55 333.25,354.1 333.4,348.25 333.45,347.45 334.1,340.55 340,339.2"/></g><defs/></svg>