<?xml version="1.0" encoding="utf-8"?><svg xmlns:xlink="http://www.w3.org/1999/xlink" id="Scene_1" image-rendering="auto" baseProfile="basic" version="1.1" x="0px" y="0px" width="600" height="600" viewBox="0 0 600 600" xmlns="http://www.w3.org/2000/svg"><g id="Scene 1_0.0"><path fill="#B1BCB2" d="M388,180Q390.6,162.95 384.6,154.45 376.8,143.35 365.9,150.6 357.9,155.95 345.2,174.15 331.05,195.4 324.2,204.2 312.45,219.3 304.6,220.1 297.75,220.8 291,218.9 286.95,217.75 280.25,214.6 273.9,211.6 270.9,210.9 265.95,209.75 261.55,211.6 257,213.55 253.8,224.35 250.8,234.35 249.45,249.85 246.6,283.3 252.15,311.15 258.6,343.9 273.45,373.8 290.6,408.35 306,408.7 320.5,409 331,379.2 338.25,358.7 349.35,302.4 352.9,284.6 362.05,258.8 372.9,229.75 377.7,216.35 386,193.2 388,180"/></g><defs/></svg>