<?xml version="1.0" encoding="utf-8"?><svg xmlns:xlink="http://www.w3.org/1999/xlink" id="Scene_1" image-rendering="auto" baseProfile="basic" version="1.1" x="0px" y="0px" width="600" height="600" viewBox="0 0 600 600" xmlns="http://www.w3.org/2000/svg"><g id="Scene 1_1.0"><path fill="#ACC6C9" d="M353.65,270.35Q335.5,217.2 329.6,202.5 312.1,159.1 302.45,161.05 297.2,162.1 293.5,173.05 290.9,180.6 288.05,197.2 284.5,217.35 283.3,222.45 280.3,234.85 276.45,237.85 272.65,240.8 266.9,240.9 264,240.95 256.45,239.8 249.95,238.8 246.7,239.35 241.85,240.15 239.2,244.3 232.85,254.35 239.7,290.45 246.2,324.8 258.2,351.45 272.05,382.4 293.05,409.35 315.25,437.7 325.95,435.55 331.4,434.45 332.25,423.85 332.85,416.5 331.2,400.7 329.15,381.4 329,376.8 328.65,365.2 332,362.8 335.5,360.3 343.95,361.35 352.3,362.35 355.75,359.6 358.85,357.15 361.1,350.3 363.65,342.65 364.15,331.95 365.45,304.75 353.65,270.35"/></g><defs/></svg>