<?xml version="1.0" encoding="utf-8"?><svg xmlns:xlink="http://www.w3.org/1999/xlink" id="Scene_1" image-rendering="auto" baseProfile="basic" version="1.1" x="0px" y="0px" width="150" height="120" viewBox="0 0 150 120" xmlns="http://www.w3.org/2000/svg"><g id="Scene 1_4.0"><path fill="#8C837D" d="M81,63.075Q81.691,62.075 81,61.075 80.505,61.05 80,61.05 72.8,61.05 67.65,66.2 62.55,71.3 62.55,78.5 62.55,85.75 67.65,90.85 72.8,96 80,96 80.505,96 81,95.975 82.087,94.975 81,93.975 80.506,94 80,94 73.6,94 69.05,89.45 64.55,84.95 64.55,78.5 64.55,72.1 69.05,67.6 73.6,63.05 80,63.05 80.506,63.05 81,63.075"/><path fill="#8C837D" d="M81,47.65Q81.7,46.65 81,45.65L29.05,45.65 29.05,82.8 23.2,82.8 23.2,39.8 81,39.8Q82.11,38.8 81,37.8L21.2,37.8 21.2,84.8 29.05,84.8 29.05,92.65 38.8,92.65 38.8,102.25 81,102.25Q82.17,101.055 81,100.25L40.8,100.25 40.8,56.75 81,56.75Q81.832,55.843 81,54.75L38.8,54.75 38.8,90.65 31.05,90.65 31.05,47.65 81,47.65"/></g><g id="Scene 1_3.0"><path fill="#8C837D" d="M81,63.075Q86.756,63.41 90.9,67.6 95.45,72.1 95.45,78.5 95.45,84.9 90.9,89.45 86.756,93.64 81,93.975 80.156,94.975 81,95.975 87.558,95.639 92.3,90.85 97.45,85.7 97.45,78.5 97.45,71.3 92.3,66.2 87.558,61.411 81,61.075 79.875,61.888 81,63.075"/><path fill="#8C837D" d="M100.45,45.65L81,45.65Q79.89,46.465 81,47.65L108.35,47.65 108.35,54.75 81,54.75Q80.353,55.75 81,56.75L119.2,56.75 119.2,100.25 81,100.25Q79.89,101.25 81,102.25L121.2,102.25 121.2,54.75 110.35,54.75 110.35,45.65 102.45,45.65 102.45,37.8 81,37.8Q80.04,38.8 81,39.8L100.45,39.8 100.45,45.65"/></g><g id="Scene 1_1.0"><path fill="#8C837D" d="M105.65,78.5Q105.65,79.6 106.4,80.35 107.1,81.1 108.15,81.1 109.2,81.1 109.95,80.35 110.7,79.6 110.7,78.5 110.7,77.45 109.95,76.7 109.2,75.95 108.15,75.95 107.1,75.95 106.4,76.7 105.65,77.45 105.65,78.5"/><path fill="#8C837D" d="M53.6,76.7Q52.85,75.95 51.8,75.95 50.75,75.95 50,76.7 49.25,77.45 49.25,78.5 49.25,79.6 50,80.35 50.75,81.1 51.8,81.1 52.85,81.1 53.6,80.35 54.35,79.6 54.35,78.5 54.35,77.45 53.6,76.7"/></g><g id="Scene 1_0.0"><path fill="#8C837D" d="M82.85,82.5Q82.85,83.8 81.85,84.6 80.9,85.4 79.35,85.4 77,85.4 75.1,84.15L74.4,86.15Q76,87.35 78.9,87.45L78.9,90.45 80.75,90.45 80.75,87.35Q82.95,87 84.2,85.5 85.4,84.15 85.4,82.3 85.4,80.4 84.25,79.1 83.2,77.9 80.85,76.9 78.8,76.05 78.05,75.35 77.2,74.6 77.2,73.5 77.2,72.5 77.9,71.8 78.75,70.95 80.3,70.95 82.3,70.95 84,71.95L84.75,70Q83.15,69.05 80.9,69L80.9,66.1 79.1,66.1 79.1,69.1Q77.05,69.45 75.85,70.75 74.65,72 74.65,73.85 74.65,75.7 75.95,76.95 77.05,78 79.5,79 82.85,80.35 82.85,82.5"/></g><defs/></svg>