<?xml version="1.0" encoding="utf-8"?><svg xmlns:xlink="http://www.w3.org/1999/xlink" id="Scene_1" image-rendering="auto" baseProfile="basic" version="1.1" x="0px" y="0px" width="100" height="130" viewBox="0 0 100 130" xmlns="http://www.w3.org/2000/svg"><g id="Scene 1_0.0.0"><g transform="matrix(1.507 0 0 1.507 21.7 109.35)"><path fill="#CDC8C1" d="M5.2,3.95Q5.6,3.4 5.6,2.5 5.6,1.95 5.35,1.35 5.15,0.95 4.7,0.6 4.3,0.3 3.6,0.15 3,0 2.15,0L0.95,0.05 0,0.2 0,7.85Q0.15,8 0.65,8 1.15,8 1.3,7.85L1.3,5.05 1.6,5.05 1.9,5.1 2.9,5.1 4.6,7.85Q4.85,8 5.4,8L5.85,7.95Q6.05,7.95 6.15,7.85L4.2,4.8Q4.85,4.5 5.2,3.95 M4.2,2.6Q4.2,3.35 3.75,3.65 3.25,4 2.4,4L1.3,3.9 1.3,1.25Q1.55,1.15 2.25,1.15 3.2,1.15 3.7,1.5 4.2,1.8 4.2,2.6"/></g><g transform="matrix(1.507 0 0 1.507 40.6 109.15)"><path fill="#CDC8C1" d="M7,5.9Q7.25,5.05 7.25,4.1 7.25,3.1 6.95,2.35 6.75,1.65 6.25,1.05 5.75,0.55 5.1,0.25 4.35,0 3.6,0 2.85,0 2.15,0.3 1.5,0.5 1,1.1 0.6,1.5 0.25,2.35 0,3.05 0,4.1 0,6.25 0.9,7.3 1.9,8.35 3.6,8.35 4.45,8.35 5.1,8.05 5.75,7.85 6.25,7.25 6.7,6.75 7,5.9 M5.85,4.1Q5.85,5.55 5.3,6.35 4.7,7.15 3.6,7.15 2.55,7.15 1.95,6.35 1.35,5.6 1.35,4.1 1.35,2.75 1.9,1.95 2.5,1.15 3.6,1.15 3.95,1.15 4.55,1.35 4.95,1.6 5.25,1.95 5.55,2.35 5.7,2.85 5.85,3.45 5.85,4.1"/></g><g transform="matrix(1.507 0 0 1.507 60.6 109.45)"><path fill="#CDC8C1" d="M2.95,0.15Q2.8,0 2.3,0 1.8,0 1.65,0.15L1.65,6.35 1.55,7.25Q1.5,7.7 1.25,8 1.15,8.25 0.75,8.65L0,9.15 0.2,9.75Q0.3,10 0.65,10.15 1.8,9.6 2.4,8.65 2.95,7.65 2.95,6.2L2.95,0.15"/></g><g transform="matrix(1.507 0 0 1.507 76.6 109.45)"><path fill="#CDC8C1" d="M0,0.15L0,7.8Q0.15,7.95 0.65,7.95 1.15,7.95 1.3,7.8L1.3,0.15Q1.15,0 0.65,0 0.15,0 0,0.15"/></g><g transform="matrix(1.507 0 0 1.507 -216.249 -37.499)"><path fill="#CDC8C1" d="M179.65,47.4Q178.85,47.15 178.25,46.8 177.6,46.35 178.05,46.3 179.15,46.05 180.3,46 182.35,45.6 184.3,47.35 186.45,49.35 186.15,52.6L185.7,55.9Q184.7,63.2 184.7,67.05 184.7,74.15 187.45,75.4 190.55,76.75 193.4,76.05 198.55,71.25 200.95,66.9 202.7,63.7 203.7,59.05 205.25,52.1 204.25,48.15 202.45,41.15 193.4,36 185.25,31.35 177.85,29.55 164.4,26.25 157.9,33.5 150.05,42.3 148.55,56.95 148,62.7 151.05,69.35 154.5,76.8 160.65,80.6 168.65,85.5 173.55,85.95 180.7,86.55 188.65,80.15L190.3,78.75Q188.3,78.6 186.45,77.7 182.5,75.95 182.15,68.35 182,64 183.2,55.55 183.55,53.35 183.6,52.35 183.95,48.85 179.65,47.4 M176.55,35.95Q177.25,36.2 175.4,38.05 173.1,40.25 170.2,43.5 164.35,50 160.85,55.5 166.2,52 170.35,52.25 173.55,52.45 175.8,54.4 178.45,56.7 178.85,60.8 179.15,63.95 177.1,66.75 175.25,69.3 172.2,70.6 169.85,71.55 167.65,71.55 164.2,71.65 162.7,69.3 161,66.6 163.35,64.4 163.65,64.1 164.25,63.95 164.6,63.9 165.75,63.65 166.4,63.45 166,64.05 165.8,64.4 165.2,65.15 164.3,67.05 164.85,67.95 165.4,68.85 166.6,69.1 168.05,69.45 169.95,68.75 172.75,67.75 174.5,65.9 176.55,63.7 176.35,61.05 176.05,57.55 173.7,55.95 172.2,54.9 170.15,54.8 166.65,54.55 162,57.75 159.65,59.35 157.65,61.35 155.85,63.2 155.55,62.35 155.15,61.35 155.7,60 157.85,55.05 162.55,48.8 166.05,44.15 170.2,39.75 165.6,40.75 161.3,40.2 157.85,39.4 157.7,39.35 157.05,39.15 156.25,38.65 155.35,38.1 155.8,38 157.5,37.6 158.25,37.35 160.05,37.85 162.85,37.95 168.45,38.1 174.05,35.95 174.5,35.8 175.3,35.8 176.15,35.8 176.55,35.95 M190.7,47.6Q190.75,47.15 191.4,46.7 191.95,46.3 192.5,46.25 194.6,46.05 196.5,47.3 199.1,49.1 199.9,53.15 200.05,54.05 199.7,54.95 199.25,55.9 198.55,56.1 198.05,56.1 197.8,55.15 197.8,55.1 197.55,53.75 197.05,49.95 193.75,48.7 190.65,48.15 190.7,47.6 M189.45,48.6Q191.75,49.05 193.5,50.9 195.9,53.4 195.9,57.4 195.9,58.7 194.35,59.7 193.9,59.7 193.6,58.8 193.35,58.1 193.35,57.4 193.35,53.05 190,51.1 186.85,49.95 187.2,49.45 187.5,49.05 188.2,48.8 188.95,48.55 189.45,48.6"/></g></g><defs/></svg>