<?xml version="1.0" encoding="utf-8"?><svg xmlns:xlink="http://www.w3.org/1999/xlink" id="Scene_1" image-rendering="auto" baseProfile="basic" version="1.1" x="0px" y="0px" width="50" height="35" viewBox="0 0 50 35" xmlns="http://www.w3.org/2000/svg"><g id="Scene 1_0.0.0"><g transform="matrix(1.82 0 0 1.82 26 24.9)"><path fill="#333" d="M0.45,0L0,0 0,1.8 0.45,1.8 0.45,0"/></g><g transform="matrix(1.82 0 0 1.82 20.2 23.5)"><path fill="#333" d="M0.9,0L0,1.6 0.4,1.8 1.3,0.25 0.9,0"/></g><g transform="matrix(1.82 0 0 1.82 16.2 10.3)"><path fill="#333" d="M0.2,0L0,0.4 1.55,1.35 1.75,0.95 0.2,0"/></g><g transform="matrix(1.82 0 0 1.82 20.25 6.2)"><path fill="#333" d="M0.4,0L0,0.25 0.9,1.8 1.3,1.6 0.4,0"/></g><g transform="matrix(1.82 0 0 1.82 30.2 23.6)"><path fill="#333" d="M0.4,0L0,0.2 0.9,1.8 1.3,1.55 0.4,0"/></g><g transform="matrix(1.82 0 0 1.82 14.8 16.15)"><path fill="#333" d="M0,0L0,0.45 1.8,0.45 1.8,0 0,0"/></g><g transform="matrix(1.82 0 0 1.82 16 20.35)"><path fill="#333" d="M1.6,0L0,0.9 0.25,1.3 1.8,0.4 1.6,0"/></g><g transform="matrix(1.82 0 0 1.82 12.25 2.4)"><path fill="#333" d="M15.55,7.8Q15.55,4.55 13.3,2.3 11,0 7.8,0 4.55,0 2.3,2.25 0,4.55 0,7.75 0,11 2.25,13.25 4.55,15.55 7.75,15.55 11,15.55 13.25,13.3 15.55,11 15.55,7.8 M11.15,2.35L10.25,3.95 9.85,3.7 10.8,2.15 11.15,2.35 M11.65,5.3L13.2,4.4 13.4,4.8 11.85,5.7 11.65,5.3 M14.15,7.55L14.15,8 12.35,8 12.35,7.55 14.15,7.55 M7.65,7.95L13.4,11.45Q12.5,12.85 11,13.65 9.5,14.5 7.75,14.5 5,14.5 3,12.5 1.05,10.55 1.05,7.75 1.05,5.05 2.95,3.1 4.85,1.2 7.55,1.1L7.55,7.8 7.65,7.95"/></g></g><defs/></svg>