<?xml version="1.0" encoding="utf-8"?><svg xmlns:xlink="http://www.w3.org/1999/xlink" id="Scene_1" image-rendering="optimizeQuality" baseProfile="basic" version="1.1" x="0px" y="0px" width="28" height="28" viewBox="0 0 28 28" xmlns="http://www.w3.org/2000/svg"><g id="Scene 1_2.0"><path fill="#DAB794" d="M27,14Q27,8.65 23.2,4.85 19.4,1 14,1 8.65,1 4.85,4.85 1,8.65 1,14 1,18.583 3.775,22.025L11.2,12.1 13.3,12.7Q14.8,12.95 16,12.35L16.65,12.05 24.175,22.125Q27,18.651 27,14 M12.6,6Q13.373,6.11 13.825,6.7 14.986,7.384 15.75,7.075 16.245,6.731 16.75,6.8 17.5,6.8 17.9,7.4 18.1,7.65 18.05,8 18,8.35 17.75,8.55 17.5,8.7 17.15,8.7 16.85,8.6 16.7,8.45 16.4,8.6 15.95,9.3 15.1,10.7 15,12 14.95,12.35 14.7,12.55 14.45,12.8 14.15,12.75 13.75,12.75 13.55,12.5 13.3,12.25 13.35,11.9 13.41,10.906 13.825,9.85 13.951,9.191 13.525,8.9 13.273,8.861 13.05,8.75 12.75,8.55 12.75,8.25 12.65,7.7 12.25,7.6 11.95,7.5 11.75,7.2 11.55,6.95 11.65,6.6 11.7,6.3 12,6.1 12.25,5.9 12.6,6"/></g><g id="Scene 1_1.0"><path fill="#DAB794" d="M13.525,8.9Q13.207,9.562 13.825,9.85 14.112,9.166 14.55,8.45 15.145,7.476 15.75,7.075 15.087,6.289 13.825,6.7 14.193,7.166 14.35,7.95 14.35,8.25 14.2,8.55 14,8.8 13.7,8.9 13.61,8.9 13.525,8.9"/></g><g id="Scene 1_0.0"><path fill="#DAB794" d="M9.6,16.925L4.9,23.25Q8.678,27 14,27 19.295,27 23.05,23.35L18.3,17Q15.638,18.244 12.3,17.65 10.718,17.436 9.6,16.925"/><path fill="#DAB794" d="M17.275,15.65L16.1,14.05Q14.65,14.55 12.95,14.3L12.9,14.3 11.8,14 10.625,15.575Q11.445,15.886 12.55,16.1L12.6,16.1Q15.162,16.527 17.275,15.65"/></g><defs/></svg>