<?xml version="1.0" encoding="utf-8"?><svg xmlns:xlink="http://www.w3.org/1999/xlink" id="Scene_1" image-rendering="optimizeQuality" baseProfile="basic" version="1.1" x="0px" y="0px" width="220" height="100" viewBox="0 0 220 100" xmlns="http://www.w3.org/2000/svg"><g id="Scene 1_1.0"><path fill="#8C837D" d="M124.3,13.7Q123.55,12.75 122.4,12.75 120.55,12.8 118.6,15.95 116.35,19.55 116.05,23.05 116.05,23.8 116.7,23.8L116.75,23.8Q117.5,23.8 117.5,23.15 117.7,19.95 119.8,16.7 121.2,14.4 122.4,14.2 122.85,14.2 123.05,14.5 123.55,15.05 124.05,14.7 124.7,14.25 124.3,13.7"/><path fill="#8C837D" d="M141.35,38.6Q140.8,38.45 140.5,39.2 140.35,39.85 141,40.05 141.6,40.05 141.8,41.05 141.95,41.65 142.5,41.65L142.65,41.65Q143.4,41.5 143.25,40.75 142.9,38.95 141.35,38.6"/><path fill="#8C837D" d="M148.4,39.4Q147.9,38.9 147.05,38.95 145.9,39.15 145,41.2 144.15,43.35 144.3,45.3 144.45,45.95 145,45.95L145.1,45.95Q145.9,45.8 145.75,45.15 145.6,43.55 146.4,41.7 146.9,40.4 147.35,40.4 147.9,40.95 148.4,40.4 148.8,39.9 148.4,39.4"/><path fill="#8C837D" d="M113,10.7Q112.35,10.55 112.15,11.3 112,11.85 112.75,12.15 114.3,12.5 114.7,14.45 114.8,15.05 115.35,15.05L115.45,15.05Q116.2,14.9 116.05,14.25 115.55,11.3 113,10.7"/><path fill="#8C837D" d="M81.15,34.35Q81.75,34.35 81.95,35.35 82.1,35.95 82.65,35.95L82.8,35.95Q83.55,35.8 83.4,35.05 83.05,33.25 81.5,32.9 80.95,32.75 80.65,33.5 80.5,34.15 81.15,34.35"/><path fill="#8C837D" d="M88.45,34.65Q88.85,34.15 88.45,33.65 87.95,33.15 87.1,33.2 85.95,33.4 85.05,35.45 84.2,37.6 84.35,39.55 84.5,40.2 85.05,40.2L85.15,40.2Q85.95,40.05 85.8,39.4 85.65,37.8 86.45,35.95 86.95,34.65 87.4,34.65 87.95,35.2 88.45,34.65"/><path fill="#8C837D" d="M69.3,24.6Q68.8,24.1 67.95,24.15 66.8,24.35 65.9,26.4 65.05,28.55 65.2,30.5 65.35,31.15 65.9,31.15L66,31.15Q66.8,31 66.65,30.35 66.5,28.75 67.3,26.9 67.8,25.6 68.25,25.6 68.8,26.15 69.3,25.6 69.7,25.1 69.3,24.6"/><path fill="#8C837D" d="M62.3,23.85Q61.75,23.7 61.45,24.45 61.3,25.1 61.95,25.3 62.55,25.3 62.75,26.3 62.9,26.9 63.45,26.9L63.6,26.9Q64.35,26.75 64.2,26 63.85,24.2 62.3,23.85"/><path fill="#8C837D" d="M180,72.275Q180.48,71.769 180,69.725L160.1,41.45 159.6,41.6Q158.8,41.8 157.8,41.75 156.85,41.6 156.85,41.5L156.35,41.45 149.725,50.675 146.9,46.95 146.4,47.15Q145,47.75 143.55,47.15L143.05,46.95 139.3,51.825 119.9,25 119.4,25.2Q117.8,25.85 115.8,25.65 114.2,25.2 114.1,25.2L113.6,25 94.525,51.225 87.8,41.85 87.35,41.35 86.8,41.7Q86.3,42 84.2,41.55L83.75,41.5 79.65,47.2 68.35,32.55 67.8,32.85Q66.25,33.7 64.45,33.4 63.15,33.15 62.85,32.85L62.25,32.55 46.725,54.55 44.05,51.1 43.55,51.4Q42.4,51.95 41.15,51.75 40.2,51.6 40,51.4L39.4,51.1 26,69.825Q25.406,71.917 26,72.425L39.95,53Q42,53.65 43.6,53L45.8,55.85 45.85,55.9 51.325,62.875 39.1,79.2 26,79.125Q25.421,79.85 26,80.575L39.85,80.65 58.725,55.45Q63.502,57.8 69.2,57.8 74.387,57.8 78.55,55.55L96.3,79.25 97.45,78.4 91.475,70.425 108.55,47.6Q110,48.25 111.5,47.75L132.6,76.6 133.75,75.75 112,45.95 111.45,46.15Q110.45,46.65 109.55,46.45L108.9,46.1 108.35,45.5 90.575,69.225 86.9,64.3 109.475,33.15 109.5,33.15 110.4,33.6Q114.35,35.45 117.25,35.45 120.581,35.45 124.175,33.4L152.25,72.3 153.45,71.4 140.15,53 143.55,48.7Q145,49.05 146.4,48.7L170.65,80.5 180,80.5Q180.5,79.8 180,79.1L171.3,79.1 150.625,51.875 157,43.05Q158.5,43.25 159.45,43.05L180,72.275 M86.95,43.15L93.65,52.425 85.95,63.025 77.575,51.875 77.9,52.1 84.4,43.1Q85.7,43.35 86.95,43.15 M119.4,26.8L123.325,32.225Q119.73,34.272 116.1,33.95 113.95,33.65 111.05,32.3 110.659,32.066 110.35,31.925L114.1,26.75Q116.95,27.55 119.4,26.8 M67.9,34.45L78.7,48.3 79.1,47.975 76.925,51 74.2,47.35 73.7,47.65Q70.75,49.15 66.85,48.6 63.5,47.65 63.45,47.55L62.95,47.35 52.225,61.675 47.675,55.775 62.75,34.45Q65.35,35.45 67.9,34.45 M65.4,56Q62.038,55.432 59.575,54.325L63.45,49.15Q69.1,51.3 73.75,49.15L77.7,54.425Q72.315,57.104 65.4,56"/></g><g id="Scene 1_0.0"><path fill="#8C837D" d="M26,72.425Q26.788,70.513 26,69.825L19.375,79.1 10,79.05 9.95,80.5 19.475,80.55 19.95,80.85 20.175,80.55 26,80.575Q26.717,79.671 26,79.125L21.2,79.1 26,72.425"/><path fill="#8C837D" d="M180,79.1Q179.5,79.8 180,80.5L194.8,80.5 194.8,79.1 186.6,79.1 180,69.725Q179.153,70.435 180,72.275L184.8,79.1 180,79.1"/></g><defs/></svg>