<?xml version="1.0" encoding="utf-8"?><svg xmlns:xlink="http://www.w3.org/1999/xlink" id="Scene_1" image-rendering="optimizeQuality" baseProfile="basic" version="1.1" x="0px" y="0px" width="28" height="28" viewBox="0 0 28 28" xmlns="http://www.w3.org/2000/svg"><g id="Scene 1_3.0"><path fill="#DAB794" d="M1.475,17.6Q2.355,20.737 4.85,23.2 8.65,27 14,27 18.115,27 21.3,24.8 16.354,23.791 10.55,20.7 5.509,17.967 1.475,17.6"/></g><g id="Scene 1_2.0"><path fill="#DAB794" d="M22.7,23.7Q22.948,23.452 23.2,23.2 24.667,21.733 25.575,20.025 25.331,19.967 25.1,19.9L25.05,19.9Q21.65,18.9 17.35,15.8 10,10.6 1.45,13.2 1.23,13.267 1.025,13.325 1,13.666 1,14 1,15.178 1.175,16.275 5.585,16.541 11.2,19.55 17.502,22.861 22.7,23.7"/></g><g id="Scene 1_1.0"><path fill="#DAB794" d="M14.9,12.85Q16.5,13.65 18.1,14.75 22.1,17.65 25.45,18.65 25.779,18.742 26.125,18.825 27,16.597 27,14 27,11.218 25.975,8.85 22.325,9.107 18.55,10.8L18.5,10.8Q16.35,11.8 14.9,12.85"/></g><g id="Scene 1_0.0"><path fill="#DAB794" d="M25.325,7.575Q24.473,6.123 23.2,4.85 19.4,1 14,1 8.65,1 4.85,4.85 1.777,7.883 1.15,11.9 7.67,10.027 13.45,12.25 15.25,10.9 18,9.6 21.745,7.907 25.325,7.575"/></g><defs/></svg>