<?xml version="1.0" encoding="utf-8"?><svg xmlns:xlink="http://www.w3.org/1999/xlink" id="Scene_1" image-rendering="optimizeQuality" baseProfile="basic" version="1.1" x="0px" y="0px" width="28" height="28" viewBox="0 0 28 28" xmlns="http://www.w3.org/2000/svg"><g id="Scene 1_4.0"><path fill="#DAB794" d="M25.625,19.925Q23.463,18.903 21.3,19.725 21.693,20.768 21.8,21.75L20.7,21.85Q20.38,19.241 17.725,16.05 15.762,17.387 14.95,19.3 16.6,19.6 18.25,19.2L18.5,20.25Q16.75,20.7 14.8,20.45 10.7,19.9 9.75,16 8.6,11.2 6.6,8.05L6.15,7.35 6.9,7.2Q7.729,7.012 8.825,6.925 8.945,4.975 7.075,3.025 5.898,3.788 4.85,4.85 1,8.65 1,14 1,19.4 4.85,23.2 8.65,27 14,27 19.4,27 23.2,23.2 24.707,21.693 25.625,19.925"/></g><g id="Scene 1_3.0"><path fill="#DAB794" d="M16.7,9.55Q15.782,11.238 16.25,12.925 17.123,13.77 18,14.75 18.977,15.826 19.7,16.85 20.516,14.036 19.55,12.15 18.74,10.608 16.7,9.55"/></g><g id="Scene 1_2.0"><path fill="#DAB794" d="M16.7,9.55Q16.11,9.225 15.4,8.95 12.55,7.9 9.6,8 8.65,8.05 8,8.2 9.7,11.25 10.8,15.7 11.6,18.85 14.95,19.3 16.83,17.872 17.725,16.05 17.467,15.751 17.2,15.45 15.5,13.6 13.95,12.4L14.6,11.5Q15.423,12.154 16.25,12.925 17.169,11.436 16.7,9.55"/></g><g id="Scene 1_1.0"><path fill="#DAB794" d="M21.3,19.725Q23.555,20.655 25.625,19.925 27,17.258 27,14 27,8.65 23.2,4.85 19.4,1 14,1 10.126,1 7.075,3.025 7.455,5.569 8.825,6.925 9.169,6.912 9.55,6.9 12.75,6.8 15.8,7.9 19.4,9.25 20.55,11.65 21.85,13.95 20.6,17.7L20.175,17.55Q20.885,18.669 21.3,19.725"/></g><defs/></svg>