<?xml version="1.0" encoding="utf-8"?><svg xmlns:xlink="http://www.w3.org/1999/xlink" id="Scene_1" image-rendering="auto" baseProfile="basic" version="1.1" x="0px" y="0px" width="50" height="35" viewBox="0 0 50 35" xmlns="http://www.w3.org/2000/svg"><g id="Scene 1_0.0.0"><g transform="matrix(1.555 0 0 1.555 2.75 2.65)"><path fill="#333" d="M1,0.55Q0.6,1 0.6,1.6L0.6,6.45 0.55,6.65Q0,7.3 0,8.05 0,8.95 0.65,9.6 1.3,10.2 2.15,10.2 3.05,10.2 3.7,9.6 4.3,8.95 4.3,8.1 4.3,7.3 3.75,6.65L3.7,6.5 3.7,1.55Q3.7,0.9 3.2,0.45 2.65,-0.05 2,0 1.4,0.1 1,0.55 M1.45,0.9Q1.75,0.6 2.15,0.6 2.55,0.6 2.85,0.9 3.15,1.15 3.2,1.55L3.2,6.7 3.25,6.9Q3.8,7.35 3.8,8.05 3.8,8.7 3.3,9.2 2.85,9.65 2.15,9.65 1.5,9.65 1.05,9.2 0.55,8.7 0.55,8.05 0.55,7.35 1.1,6.9L1.15,6.7 1.15,1.55Q1.15,1.15 1.45,0.9"/></g><g transform="matrix(1.555 0 0 1.555 4.7 13.8)"><path fill="#333" d="M1.8,0.9Q1.8,0.55 1.55,0.25 1.3,0 0.9,0 0.55,0 0.25,0.25 0,0.55 0,0.9 0,1.3 0.25,1.55 0.55,1.8 0.9,1.8 1.3,1.8 1.55,1.55 1.8,1.3 1.8,0.9"/></g><g transform="matrix(1.555 0 0 1.555 5.55 8.6)"><path fill="#333" d="M0.7,4.25L0.7,0 0,0 0,4.25 0.7,4.25"/></g><g transform="matrix(1.555 0 0 1.555 11 9.05)"><path fill="#333" d="M23.85,3.75Q24.55,3.7 24.1,3.25 23.4,2.7 22.9,2.65L22.5,2.65Q21.3,3.2 20.5,4.95 20.1,5.85 19.95,6.65 19.7,7.45 18,7.05L17.95,6.85Q17.65,6 16.75,5.1L15.95,4.35Q15.7,4.15 15.6,3.85L15.5,3.6Q15.7,3.3 15.6,3.05 15.35,2.2 12,2.1 11.65,2.05 11.55,1.85L11.5,1.65Q11.8,1.45 11.85,1 11.85,0 10.6,0 9.35,0 9.35,1L9.4,1.25Q9.5,1.55 9.7,1.65 9.75,2.05 9.2,2.1 5.85,2.2 5.6,3.05L5.6,3.2Q5.6,3.4 5.7,3.6 5.65,4.05 5.25,4.35L5.1,4.45Q3.65,2.55 1.6,3.35 1.2,3.45 0.8,3.85 0,4.7 0,6.3L0.25,7.65Q0.8,9.2 2.25,10.2L3.2,10.95Q3.75,12.9 5.55,14.05L5.75,14.25Q5.95,14.5 5.9,14.85 7,15.55 10.15,15.55L11.05,15.55Q14.2,15.55 15.3,14.85 15.25,14.5 15.45,14.25 15.55,14.1 15.65,14.05 17.2,13 17.75,11.6 20.15,11.25 21.3,8.8 21.85,7.55 21.95,6.4 22.15,4.85 23,4.15 23.45,3.8 23.85,3.75 M2.3,4.05L3.15,4.15Q4,4.4 4.1,5.3 3.55,5.9 3.25,6.85L3.05,7.65Q2.9,8.7 2.95,9.65 2.15,9.2 1.9,8.9 0.5,7.25 0.8,5.6 0.95,4.3 2.3,4.05"/></g></g><defs/></svg>