<?xml version="1.0" encoding="utf-8"?><svg xmlns:xlink="http://www.w3.org/1999/xlink" id="Scene_1" image-rendering="auto" baseProfile="basic" version="1.1" x="0px" y="0px" width="100" height="100" viewBox="0 0 100 100" xmlns="http://www.w3.org/2000/svg"><g id="Scene 1_1.0"><path fill="#FFF" d="M83.35,83.35Q97.05,69.35 97.05,49.85 97.05,30.3 83.35,16.65 69.35,2.65 49.85,2.95 30.3,2.95 16.9,16.65L16.65,16.9Q2.95,30.3 2.95,49.85 2.65,69.35 16.65,83.35 30.3,97.05 49.85,97.05 69.35,97.05 83.35,83.35 M82.45,82.2L82.2,82.45Q68.8,95.3 49.85,95.6 30.9,95.3 17.8,82.2 4.4,68.8 4.4,49.85 4.4,30.9 17.8,17.8 30.9,4.4 49.85,4.4 68.8,4.4 82.2,17.8 95.3,30.9 95.6,49.85 95.3,68.8 82.45,82.2"/></g><g id="Scene 1_0.0"><path fill="#FFF" d="M40.9,64L63.95,50.9 40.9,37.8 40.05,37.2 40.05,64.85 40.9,64 M41.5,62.25L41.5,39.55 61.3,50.9 41.5,62.25"/></g><defs/></svg>