<?xml version="1.0" encoding="utf-8"?><svg xmlns:xlink="http://www.w3.org/1999/xlink" id="Scene_1" image-rendering="optimizeQuality" baseProfile="basic" version="1.1" x="0px" y="0px" width="220" height="100" viewBox="0 0 220 100" xmlns="http://www.w3.org/2000/svg"><g id="Scene 1_0.0"><path fill="#8C837D" d="M137.8,27.35L135,26.8Q124.55,24.8 108.9,26.15 97.05,27.1 90.6,33.6 85.95,38.2 83.55,46.45 81.7,53.05 84.35,60.5 85.493,63.417 86.875,65.675 82.757,73.555 81.55,79.95L83.4,80.35Q84.76,73.879 89.05,65.8L89.25,65.65Q89.216,65.606 89.175,65.575 89.412,65.134 89.65,64.7 92.377,59.797 95.75,55.5L112.75,54.65 112.6,52.65 97.35,53.55Q105.496,43.974 117.1,37.65L116.15,35.8Q107.661,40.485 100.975,46.85L103.65,37.25 101.7,36.85 98.225,49.6Q92.296,55.924 87.95,63.725 86.992,62.052 86.2,59.95 83.7,53.05 85.4,46.95 87.8,39.15 92.05,34.9 98,29.05 109.15,28.15 120.55,27.2 132.35,28.4 125.7,34.1 124,45.5 122.4,56 119.6,60.35 116.15,65.65 107.4,68.6 102.5,70.3 93.9,68.6L93.65,70.6Q97.6,71.4 101.7,71.4 105.15,71.4 107.95,70.6 117.5,67.4 121.5,61.05 124.25,56.5 125.85,45.9 127.05,37.8 131.3,32.4 133.4,29.75 135.4,28.65L137.8,27.35"/><path fill="#8C837D" d="M44.4,21.2L45.2,22.25Q49.95,29.95 52.6,41.25 53.95,46.95 58.7,49.85 62.15,52 67.35,52 70.55,52 73.05,51.3L72.65,49.35Q65.1,51.3 59.65,48.15 55.8,45.9 54.6,40.85 52.1,30.75 47.6,22.55 57,21.2 65.9,24.4 73.7,27.3 76.25,32.2 78.517,36.975 76.275,44.275 74.485,41.649 72,38.9 68.05,34.35 63.95,31.05L62.6,32.5Q66.45,35.55 70.45,39.8 78.1,48.45 78.9,55.45L80.75,55.2Q80.268,50.416 76.8,45.075L77.95,45.5Q83.65,28.75 66.55,22.55 59.5,20 52.1,20.15 47.7,20.15 45.75,20.8L44.4,21.2"/></g><defs/></svg>