<?xml version="1.0" encoding="utf-8"?><svg xmlns:xlink="http://www.w3.org/1999/xlink" id="Scene_1" image-rendering="auto" baseProfile="basic" version="1.1" x="0px" y="0px" width="150" height="120" viewBox="0 0 150 120" xmlns="http://www.w3.org/2000/svg"><g id="Scene 1_0.0"><path fill="#8C837D" d="M111.25,16.75L111.25,16.7Q104.75,10.3 95.7,10.3 86.6,10.3 80.2,16.75L80.2,16.7Q73.7,23.1 73.7,32.25L73.75,65.65 73.65,65.7Q73.55,65.65 73.45,65.65L73.4,65.65 61.65,62.95 61.6,57.35Q61.964,57.001 62.35,56.65 66.9,52.15 66.9,45.7L66.9,44.5Q71.8,38.85 71.8,31.3 71.8,22.9 65.85,16.95 59.85,10.95 51.45,10.95 43.05,10.95 37.1,16.95 31.1,22.9 31.1,31.3 31.1,38.85 35.95,44.45L35.95,45.7Q35.95,52.1 40.5,56.65 40.862,57.012 41.25,57.4L41.25,62.95 29.45,65.65Q24.05,66.9 20.65,71.2 17.2,75.5 17.2,81L17.2,96.05 129.85,96.1 129.85,81Q129.85,75.5 126.45,71.2 123.05,66.9 117.65,65.65L117.65,32.25Q117.65,23.15 111.25,16.75 M95.7,12.1Q104.05,12.1 110,18 115.85,23.85 115.85,32.25L115.85,65.25 105.9,62.95 105.85,57.4Q106.25,57 106.65,56.65 111.15,52.1 111.15,45.7L111.15,33.55 109.85,34.15Q103.7,37.1 96.05,37.1 87.95,37.1 81.5,33.8L80.2,33.15 80.2,45.7Q80.2,52.15 84.8,56.65 85.15,57 85.5,57.35L85.45,62.95 75.55,65.25 75.5,32.25Q75.5,23.9 81.45,18 87.3,12.1 95.7,12.1 M82,36.05Q88.35,38.9 96.05,38.9 103.35,38.9 109.35,36.35L109.35,45.7Q109.35,51.4 105.4,55.4 104.9,55.85 104.4,56.3L104.35,56.35Q100.65,59.4 95.7,59.4 90.75,59.4 87.1,56.4 87.05,56.3 87,56.3 86.5,55.85 86.05,55.4L86.05,55.35Q82,51.35 82,45.7L82,36.05 M53.7,32.35L53.7,32.3Q52.25,33.65 50.5,33.65L35.95,33.65 35.95,41.5Q32.9,37.05 32.9,31.3 32.9,23.6 38.35,18.2 43.75,12.75 51.45,12.75 59.15,12.75 64.6,18.2 70,23.6 70,31.3 70,37.05 66.9,41.55L66.9,34.15 64.1,33.55Q62.35,33.15 61.3,31.65L61.3,31.7 58.55,27.45 53.7,32.35 M54.95,33.6L58.25,30.25 59.8,32.65 59.8,32.7Q61.25,34.75 63.7,35.3L63.75,35.3 65.1,35.6 65.1,44.1Q65.1,44.15 65.1,44.2L65.1,45.7Q65.1,51.35 61.1,55.35L61.1,55.4Q60.6,55.85 60.1,56.3L60.15,56.3 60.075,56.375Q56.349,59.4 51.4,59.4 46.45,59.4 42.75,56.35L42.75,56.3Q42.2,55.85 41.75,55.4 37.75,51.4 37.75,45.7L37.75,35.45 50.5,35.45Q52.95,35.45 54.95,33.6 M59.8,58.775L59.85,67.4Q59.85,70.9 57.4,73.4 54.9,75.85 51.4,75.85 47.95,75.85 45.5,73.4 43,70.9 43,67.4L43.05,63.9Q43.1,63.7 43.05,63.45L43.05,58.775Q46.708,61.2 51.4,61.2 56.118,61.2 59.8,58.775 M109.55,65.6L105.95,78.15 97.125,71.1 105.25,64.6 109.55,65.6 M117.25,67.4Q122.05,68.5 125.05,72.3 128.05,76.1 128.05,81L128.05,94.3 85.6,94.25 85.6,81Q85.6,80.55 85.6,80.15L95.7,72.25 106.95,81.25 111.325,66.025 116.4,67.2Q116.5,67.25 116.65,67.25L117.25,67.375 117.25,67.4 M104.1,63.25L95.7,69.95 87.25,63.25 87.3,58.75Q91,61.2 95.7,61.2 100.4,61.2 104.1,58.8L104.1,63.25 M86.15,64.65L94.25,71.1 85.4,78 85.35,77.8Q85.058,76.63 84.675,75.5L84.7,75.5 81.875,65.625 86.15,64.65 M82.95,76.05Q83.35,77.1 83.6,78.2L83.625,78.25Q83.704,78.91 83.75,79.65 83.75,79.7 83.75,79.75L83.75,79.85Q83.8,80.4 83.8,81L83.8,94.25 19,94.25 19,81Q19,76.1 22.05,72.35L22.05,72.3Q25.05,68.5 29.85,67.4L41.25,64.8 41.2,67.4Q41.2,71.6 44.25,74.65L44.2,74.65Q47.15,77.65 51.4,77.65 55.6,77.65 58.65,74.65 61.65,71.6 61.65,67.4L61.65,64.8 73,67.4Q73.15,67.4 73.3,67.45L73.35,67.45 73.4,67.5Q73.45,67.5 73.5,67.5 77.9,68.7 80.8,72.35L80.8,72.3Q82.2,74.1 82.95,76.1L82.95,76.05 M80.1,66.025L81.275,70.125Q79.286,68.008 76.75,66.8L80.1,66.025"/></g><defs/></svg>