<?xml version="1.0" encoding="utf-8"?><svg xmlns:xlink="http://www.w3.org/1999/xlink" id="Scene_1" image-rendering="optimizeQuality" baseProfile="basic" version="1.1" x="0px" y="0px" width="40" height="50" viewBox="0 0 40 50" xmlns="http://www.w3.org/2000/svg"><g id="Scene 1_2.0"><path fill="#8C837D" d="M21,2.8Q21.5,2.3 21,1.8 20.753,1.793 20.5,1.8 16.8,1.75 14.35,4.8 12,7.7 12,12.3L12,13.15 6,13.15 6,43.1 21,43.1Q21.425,42.6 21,42.1L7,42.1 7,14.15 21,14.15Q21.5,13.65 21,13.15L13,13.15 13,12.3Q13,8.1 15.15,5.45 17.3,2.75 20.5,2.8L20.55,2.8Q20.778,2.793 21,2.8"/></g><g id="Scene 1_1.0"><path fill="#8C837D" d="M21,1.8Q20.525,2.3 21,2.8 23.808,2.898 25.8,5.4L25.8,5.45Q28,8.15 28,12.3L28,13.15 21,13.15Q20.55,13.65 21,14.15L34,14.15 34,42.1 21,42.1Q20.525,42.6 21,43.1L35,43.1 35,13.15 29,13.15 29,12.3Q29,7.75 26.6,4.8 24.32,1.915 21,1.8"/></g><g id="Scene 1_0.0"><path fill="#8C837D" d="M28.2,22.1Q26.95,20.85 24.65,20.85 22.5,20.85 20.5,23 18.35,20.85 16.3,20.85 14,20.85 12.75,22.1 11.5,23.35 11.5,25.55 11.5,27.05 12.6,28.65 13.15,29.5 13.75,30.05L20.05,36.1Q20.2,36.25 20.5,36.25 20.75,36.25 20.9,36.1L27.2,30.05Q27.8,29.5 28.35,28.65 29.5,27.05 29.5,25.55 29.5,23.35 28.2,22.1 M21.2,23.7Q23.05,21.85 24.65,21.85 28.5,21.85 28.5,25.55 28.5,27.35 26.5,29.35L20.5,35.1 14.45,29.3Q12.5,27.5 12.5,25.55 12.5,21.85 16.3,21.85 17.9,21.85 19.75,23.7L20.45,24.4 21.2,23.7"/></g><defs/></svg>