<?xml version="1.0" encoding="utf-8"?><svg xmlns:xlink="http://www.w3.org/1999/xlink" id="Scene_1" image-rendering="optimizeQuality" baseProfile="basic" version="1.1" x="0px" y="0px" width="40" height="50" viewBox="0 0 40 50" xmlns="http://www.w3.org/2000/svg"><g id="Scene 1_2.0"><path fill="#8C837D" d="M33.65,4.7Q32.4,3.4 30.6,3.4L9.25,3.4Q7.5,3.4 6.2,4.7 4.95,5.95 4.95,7.75L4.95,38.85Q4.95,40.65 6.2,41.9 7.5,43.15 9.25,43.15L30.6,43.15Q32.4,43.15 33.65,41.9 34.95,40.6 34.95,38.85L34.95,7.75Q34.95,6 33.65,4.7 M32.95,5.4Q33.95,6.4 33.95,7.75L33.95,38.85Q33.95,40.2 32.95,41.2 32,42.15 30.6,42.15L9.25,42.15Q7.9,42.15 6.9,41.2 5.95,40.25 5.95,38.85L5.95,7.75Q5.95,6.35 6.9,5.4 7.9,4.4 9.25,4.4L30.6,4.4Q32,4.4 32.95,5.4"/></g><g id="Scene 1_1.0"><path fill="#8C837D" d="M16.55,19Q16.05,19 16.15,19.55 16.25,19.95 16.7,19.95L30.45,19.95Q30.95,19.95 30.95,19.45 30.95,19 30.45,19L16.55,19"/><path fill="#8C837D" d="M30.45,12.25Q30.95,12.25 30.95,11.8 30.95,11.3 30.45,11.3L16.6,11.3Q16.15,11.3 16.15,11.8 16.25,12.35 16.7,12.25L30.45,12.25"/><path fill="#8C837D" d="M16.6,26.65Q16.15,26.65 16.15,27.15 16.25,27.7 16.7,27.6L30.45,27.6Q30.95,27.6 30.95,27.1 30.95,26.65 30.45,26.65L16.6,26.65"/><path fill="#8C837D" d="M16.55,34.3Q16.05,34.4 16.15,34.85 16.25,35.4 16.7,35.3L30.45,35.3Q30.95,35.3 30.95,34.8 30.95,34.3 30.45,34.3L16.55,34.3"/><path fill="#8C837D" d="M11.25,10.5Q11.95,10 11.25,9.5 11.176,9.5 11.1,9.5 10.15,9.5 9.5,10.2L9.5,10.25Q8.85,10.85 8.85,11.8 8.85,12.7 9.5,13.4 10.15,14.05 11.1,14.05 11.176,14.05 11.25,14.05 11.725,13.55 11.25,13.05 11.177,13.05 11.1,13.05 10.6,13.05 10.25,12.75L10.2,12.7Q9.85,12.3 9.85,11.8 9.85,11.25 10.2,10.9L10.25,10.9Q10.55,10.5 11.1,10.5 11.177,10.5 11.25,10.5"/><path fill="#8C837D" d="M9.5,17.85L9.5,17.9Q8.85,18.5 8.85,19.45 8.85,20.4 9.5,21.05 10.15,21.7 11.1,21.7 11.176,21.7 11.25,21.7 11.82,21.2 11.25,20.7 11.177,20.7 11.1,20.7 10.55,20.7 10.2,20.35 9.85,20 9.85,19.45 9.85,18.9 10.2,18.55L10.25,18.55Q10.55,18.15 11.1,18.15 11.177,18.15 11.25,18.15 11.7,17.65 11.25,17.15 11.176,17.15 11.1,17.15 10.15,17.15 9.5,17.85"/><path fill="#8C837D" d="M11.25,25.85Q11.82,25.35 11.25,24.85 11.176,24.85 11.1,24.85 10.15,24.85 9.5,25.5L9.5,25.55Q8.85,26.2 8.85,27.1 8.85,28.05 9.5,28.75 10.15,29.4 11.1,29.4 11.176,29.4 11.25,29.4 11.915,28.9 11.25,28.4 11.177,28.4 11.1,28.4 10.6,28.4 10.25,28.1L10.2,28.05Q9.85,27.65 9.85,27.1 9.85,26.6 10.2,26.2L10.25,26.2Q10.6,25.85 11.1,25.85 11.177,25.85 11.25,25.85"/><path fill="#8C837D" d="M11.25,33.5Q11.725,33 11.25,32.5 11.176,32.5 11.1,32.5 10.15,32.5 9.5,33.2L9.5,33.25Q8.85,33.85 8.85,34.8 8.85,35.75 9.5,36.45 10.15,37.1 11.1,37.1 11.176,37.1 11.25,37.1 11.88,36.6 11.25,36.1 11.177,36.1 11.1,36.1 10.6,36.1 10.25,35.8L10.2,35.75Q9.85,35.35 9.85,34.8 9.85,34.25 10.2,33.9L10.25,33.9Q10.55,33.5 11.1,33.5 11.177,33.5 11.25,33.5"/></g><g id="Scene 1_0.0"><path fill="#8C837D" d="M11.25,9.5Q10.45,10.2 11.25,10.5 11.706,10.556 12.05,10.9 12.4,11.25 12.4,11.8 12.4,12.3 12.1,12.7 12.05,12.7 12.05,12.75 11.706,13.008 11.25,13.05 10.68,13.645 11.25,14.05 12.106,14.002 12.75,13.45L12.8,13.4Q13.4,12.7 13.4,11.8 13.4,10.85 12.75,10.2 12.106,9.556 11.25,9.5"/><path fill="#8C837D" d="M11.25,17.15Q10.775,17.65 11.25,18.15 11.706,18.206 12.05,18.55 12.4,18.9 12.4,19.45 12.4,19.95 12.1,20.35L12.05,20.35Q11.706,20.651 11.25,20.7 10.77,21.36 11.25,21.7 12.106,21.652 12.75,21.1L12.75,21.05Q13.4,20.4 13.4,19.45 13.4,18.5 12.75,17.85 12.106,17.206 11.25,17.15"/><path fill="#8C837D" d="M13.4,27.1Q13.4,26.2 12.8,25.55L12.75,25.5Q12.106,24.902 11.25,24.85 10.775,25.35 11.25,25.85 11.706,25.899 12.05,26.2L12.1,26.25Q12.4,26.6 12.4,27.1 12.4,27.65 12.1,28.05 12.05,28.05 12.05,28.1 11.706,28.358 11.25,28.4 10.8,28.9 11.25,29.4 12.106,29.352 12.75,28.8L12.8,28.75Q13.4,28.05 13.4,27.1"/><path fill="#8C837D" d="M11.25,32.5Q10.825,33.085 11.25,33.5 11.706,33.556 12.05,33.9 12.4,34.25 12.4,34.8 12.4,35.35 12.1,35.75 12.05,35.75 12.05,35.8 11.706,36.058 11.25,36.1 10.71,36.69 11.25,37.1 12.106,37.052 12.75,36.5L12.8,36.45Q13.4,35.75 13.4,34.8 13.4,33.85 12.75,33.2 12.106,32.556 11.25,32.5"/></g><defs/></svg>