<?xml version="1.0" encoding="utf-8"?><svg xmlns:xlink="http://www.w3.org/1999/xlink" id="Scene_1" image-rendering="auto" baseProfile="basic" version="1.1" x="0px" y="0px" width="23" height="23" viewBox="0 0 23 23" xmlns="http://www.w3.org/2000/svg"><g id="Scene 1_1.0"><path fill="#707070" d="M15.6,6.65L11.6,10.65 7.6,6.65Q7.455,6.502 7.25,6.5 7.045,6.502 6.9,6.65 6.752,6.795 6.75,7 6.752,7.205 6.9,7.35L10.9,11.35 6.85,15.4Q6.702,15.545 6.7,15.75 6.702,15.955 6.85,16.1 6.995,16.248 7.2,16.25 7.405,16.248 7.55,16.1L11.6,12.05 15.65,16.1Q15.795,16.248 16,16.25 16.205,16.248 16.35,16.1 16.498,15.955 16.5,15.75 16.498,15.545 16.35,15.4L12.3,11.35 16.3,7.35Q16.448,7.204 16.45,7 16.448,6.794 16.3,6.65 16.154,6.501 15.95,6.5 15.745,6.502 15.6,6.65"/></g><defs/></svg>