<?xml version="1.0" encoding="utf-8"?><svg xmlns:xlink="http://www.w3.org/1999/xlink" id="Scene_1" image-rendering="auto" baseProfile="basic" version="1.1" x="0px" y="0px" width="150" height="120" viewBox="0 0 150 120" xmlns="http://www.w3.org/2000/svg"><g id="Scene 1_2.0"><path fill="#8C837D" d="M75.35,20.575Q76.047,19.212 75.35,17.65 74.554,16.742 73.65,16L71.55,14.3 72.2,16.95Q72.4,17.75 72.3,19.05 72.05,21.75 70.25,24.5L70.05,25.15 70.15,24.75Q69.6,25.8 69.6,26.8 69.6,28.6 70.85,29.95L70.9,29.95 70.95,30Q70.85,30.05 70.75,30.15L70.7,30.15 70.7,30.2Q69.95,31 69.95,32L69.95,35.1Q70.95,35.6 71.75,35.1L71.75,32Q71.75,31.7 72,31.45 72.25,31.2 72.55,31.2L73.9,31.2Q73.95,31.2 74,31.2 74.05,31.2 74.1,31.2L75.35,31.2Q76.026,30.125 75.35,29.05 74.984,29.267 74.55,29.35L73.5,29.35Q72.7,29.2 72.15,28.7L72.15,28.65Q71.4,27.85 71.4,26.8 71.4,26.2 71.75,25.6L71.8,25.45Q73.85,22.3 74.1,19.2L74.1,19.15Q74.1,19.05 74.1,19 74.779,19.721 75.35,20.575"/></g><g id="Scene 1_1.0"><path fill="#8C837D" d="M101.15,46.1Q101.15,44.35 99.9,43.1 98.6,41.8 96.85,41.8L77.95,41.8 77.95,32Q77.95,30.95 77.2,30.2 77.1,30.1 77,30.05 77.4,29.6 77.75,29.1L77.85,29 77.9,28.9Q80.25,24.9 77.05,19.95 76.272,18.689 75.35,17.65 74.622,18.566 75.35,20.575 75.452,20.741 75.55,20.9 78.05,24.8 76.35,27.95L76.3,28 76.25,28.1Q75.869,28.716 75.35,29.05 74.559,30.125 75.35,31.2L75.4,31.2Q75.7,31.2 75.95,31.45 76.15,31.65 76.15,32L76.15,41.8 71.75,41.8 71.75,35.1Q71.04,34.236 69.95,35.1L69.95,41.8 62.5,41.8Q61.858,42.7 62.5,43.6L96.85,43.6Q97.9,43.6 98.65,44.35 99.35,45.05 99.35,46.1L99.35,48.85Q96.6,48.95 94.8,51.05 94.4,51.45 93.85,51.9 91.65,53.55 88.85,53.3 86,53.05 84.2,51.05 83.7,50.4 82.95,49.95 80.95,48.55 78.45,48.85 75.95,49.2 74.45,51.05 74.4,51.05 74.4,51.1L73.45,51.9Q71.25,53.5 68.45,53.3 65.6,53.05 63.8,51.05 63.3,50.4 62.55,49.95 62.525,49.933 62.5,49.925 61.804,51.312 62.5,52.3 64.74,54.754 68.3,55.1 71.85,55.35 74.55,53.35L74.55,53.3 74.6,53.3 75.7,52.35 75.8,52.25Q76.9,50.9 78.65,50.65L78.7,50.65Q80.5,50.45 81.95,51.45L82,51.45 82,51.5Q82.45,51.75 82.8,52.2L82.85,52.25Q85.1,54.75 88.7,55.1 92.25,55.35 94.95,53.35 95.7,52.75 96.15,52.25 97.4,50.75 99.35,50.65L99.35,64.9 62.5,64.9Q62,65.8 62.5,66.7L108.8,66.7Q109.85,66.7 110.6,67.45 111.3,68.15 111.3,69.2L111.3,74.3 110.8,74.25Q108.45,74.25 106.75,75.2 105.7,75.75 103.75,77.45 101.9,79.15 100.7,79.8 98.7,80.85 96.2,80.85 93.7,80.85 91.65,79.75L91.65,79.8Q90.35,79.05 88.6,77.45 86.75,75.8 85.75,75.25 83.9,74.25 81.55,74.25 79.15,74.25 77.45,75.2 76.35,75.7 74.5,77.45 72.65,79.15 71.45,79.8 69.45,80.85 66.9,80.85 64.462,80.85 62.5,79.8 61.8,80.8 62.5,81.8 64.49,82.65 66.9,82.65 69.95,82.65 72.3,81.4 73.65,80.65 75.7,78.75L75.7,78.8Q77.35,77.3 78.25,76.8L78.3,76.8Q79.65,76.05 81.55,76.05 83.4,76.05 84.9,76.85 85.75,77.3 87.4,78.8 89.35,80.55 90.8,81.35 93.2,82.65 96.2,82.65 99.2,82.65 101.55,81.4 102.9,80.65 104.95,78.75L104.95,78.8Q106.7,77.25 107.6,76.8 108.9,76.05 110.75,76.05L111.3,76.1 111.3,98.95Q111.3,100 110.6,100.75 109.85,101.45 108.8,101.45L62.5,101.45Q61.878,102.35 62.5,103.25L108.8,103.25Q110.55,103.25 111.85,102 113.1,100.7 113.1,98.95L113.1,75.35Q113.1,75.3 113.1,75.25L113.1,69.2Q113.1,67.45 111.85,66.2 110.55,64.9 108.8,64.9L101.15,64.9 101.15,46.1"/></g><g id="Scene 1_0.0"><path fill="#8C837D" d="M62.5,43.6Q63.325,42.7 62.5,41.8L51.6,41.8Q49.8,41.8 48.55,43.1 47.25,44.35 47.25,46.1L47.25,64.9 39.65,64.9Q37.85,64.9 36.6,66.2 35.3,67.45 35.3,69.2L35.3,98.95Q35.3,100.7 36.6,102 37.85,103.25 39.65,103.25L62.5,103.25Q63.325,102.35 62.5,101.45L39.65,101.45Q38.55,101.45 37.85,100.75 37.1,100 37.1,98.95L37.1,82.65Q37.35,82.65 37.65,82.65 40.65,82.65 43.05,81.4 44.35,80.65 46.45,78.8 48.1,77.3 49,76.8L49.05,76.8Q50.4,76.05 52.3,76.05 54.15,76.05 55.55,76.85L55.6,76.85 55.65,76.9Q56.6,77.35 58.15,78.8 60.1,80.55 61.55,81.35 62.013,81.606 62.5,81.8 63.475,80.897 62.5,79.8 62.45,79.777 62.4,79.75L62.4,79.8Q61.1,79.05 59.35,77.45 57.5,75.75 56.4,75.25L56.45,75.3Q54.65,74.25 52.3,74.25 49.9,74.25 48.2,75.2 47.1,75.7 45.25,77.45 43.35,79.15 42.15,79.85L42.2,79.8Q40.15,80.85 37.65,80.85 37.35,80.85 37.1,80.85L37.1,69.2Q37.1,68.15 37.85,67.45 38.55,66.7 39.65,66.7L62.5,66.7Q63.4,65.8 62.5,64.9L49.05,64.9 49.05,55.1Q52.9,54.9 55.35,52.3L55.35,52.25 55.4,52.25Q56.5,50.9 58.25,50.65L58.3,50.65Q60.1,50.45 61.55,51.45L61.6,51.45 61.6,51.5Q62.05,51.75 62.4,52.2L62.45,52.25Q62.475,52.278 62.5,52.3 63.389,51.557 62.5,49.925 60.519,48.554 58.05,48.85 55.5,49.2 54,51.1 52.05,53.1 49.05,53.3L49.05,46.1Q49.05,45.05 49.8,44.35 50.5,43.6 51.6,43.6L62.5,43.6"/></g><defs/></svg>