<?xml version="1.0" encoding="utf-8"?><svg xmlns:xlink="http://www.w3.org/1999/xlink" id="Scene_1" image-rendering="auto" baseProfile="basic" version="1.1" x="0px" y="0px" width="150" height="120" viewBox="0 0 150 120" xmlns="http://www.w3.org/2000/svg"><g id="Scene 1_2.0"><path fill="#8C837D" d="M123.95,37.7L123.95,37.65Q123.65,35.95 122.25,34.5 120.4,32.65 117.8,32.75 115.4,32.9 113.75,34.45L113.7,34.5 113.7,34.55 112.65,35.9 112.55,36 109.15,41.65Q108.65,40.6 107.65,39.7 105.8,37.95 103.2,38.15 100.8,38.35 99.2,40.05L99.25,40.05Q98.4,40.85 98.05,41.7L98.1,41.65 92.2,52.35 70.75,52.35Q67.15,52.3 63.85,54.8L63.9,54.8Q62.2,55.95 61.25,57.2L56.85,62.15 56.85,56.15 23.3,56.15 23.3,103.35 47.2,103.35 47.2,93.6 56.85,93.6 56.85,87.95 67.3,87.95 103.15,78.6Q105.15,78.1 107.15,76.2 108.1,75.3 108.7,74.5L131.15,47.85Q132.35,46.4 132.75,45.4 133.1,44.45 133.1,43.05L133.1,43Q133.15,41.2 131.95,39.55L131.95,39.6Q130.4,37.45 127.85,37.15 125.75,36.9 124,37.95 123.95,37.8 123.95,37.7 M130.5,40.65Q131.3,41.75 131.3,43 131.3,44.05 131.05,44.75 130.75,45.5 129.8,46.7L129.75,46.7 107.25,73.4 107.25,73.45Q106.7,74.1 105.9,74.9 104.25,76.4 102.7,76.85L67.05,86.15 56.85,86.15 56.85,64.85 62.65,58.35 62.65,58.3Q63.5,57.25 64.95,56.25 67.75,54.1 70.75,54.15L92.7,54.15Q92.75,54.15 92.8,54.15L94.6,54.15 95.95,54.4Q97.4,54.85 98.25,56.05 99.1,57.2 99.05,58.65L99.05,58.7Q99,59.25 98.85,59.95 98.05,62.55 94.8,63L74.95,63 74.95,64.8 94.8,64.8Q94.9,64.8 95.05,64.8L103.1,64.8 123.35,40.85 123.7,40.55Q123.8,40.45 123.85,40.4L124.6,39.7Q125.95,38.75 127.65,38.95 129.4,39.15 130.5,40.65 M122.15,37.9Q122.25,38.75 122.25,39.4L122.15,39.5 122.15,39.55 102.25,63 99.15,63Q100.15,62 100.6,60.45 100.75,59.65 100.85,59L109.6,44.45 109.6,44.35 114.1,36.95 114,37.05 115.05,35.7Q116.237,34.648 117.9,34.55 119.7,34.45 121,35.75L120.95,35.75Q121.95,36.75 122.2,37.95L122.15,37.9 M100.5,41.3Q101.6,40.1 103.3,39.95L103.35,39.95Q105.15,39.85 106.45,41.05L106.45,41Q107.5,42 107.8,43.2L107.9,43.75 100.4,56.25Q100.1,55.55 99.7,55 98.5,53.35 96.5,52.7L96.4,52.7 94.75,52.35 94.25,52.35 99.7,42.4Q99.9,41.85 100.5,41.3 M55.05,57.95L55.05,64.55Q55.05,64.6 55.05,64.65L55.05,91.8 47.2,91.8 47.2,57.95 55.05,57.95 M45.4,57.95L45.4,101.55 25.1,101.55 25.1,57.95 45.4,57.95"/><path fill="#8C837D" d="M93.8,13.25Q88.75,8.2 81.75,8.2 74.75,8.2 69.75,13.25 64.7,18.25 64.7,25.25 64.7,32.25 69.75,37.3 74.7,42.25 81.75,42.25 88.8,42.25 93.8,37.3 98.75,32.3 98.75,25.25 98.75,18.2 93.8,13.25 M92.55,14.5Q96.95,18.9 96.95,25.25 96.95,31.6 92.55,36.05 88.1,40.45 81.75,40.45 75.4,40.45 71,36.05 66.5,31.55 66.5,25.25 66.5,18.95 71,14.5 75.45,10 81.75,10 88.05,10 92.55,14.5"/></g><g id="Scene 1_1.0"><path fill="#8C837D" d="M33.65,63.2Q32.3,64.55 32.3,66.45 32.3,68.35 33.65,69.7 35,71.05 36.9,71.05 38.8,71.05 40.2,69.7 41.55,68.35 41.55,66.45 41.55,64.55 40.2,63.2 38.8,61.85 36.9,61.85 35,61.85 33.65,63.2 M39.75,66.45Q39.75,67.6 38.9,68.45 38.05,69.25 36.9,69.25 35.75,69.25 34.9,68.45 34.1,67.6 34.1,66.45 34.1,65.3 34.9,64.45 35.75,63.65 36.9,63.65 38.05,63.65 38.9,64.45 39.75,65.3 39.75,66.45"/></g><g id="Scene 1_0.0"><path fill="#8C837D" d="M81.75,14.75Q81,14.75 81,15.5L81,17.05Q79.2,17.2 78.05,18.15 76.5,19.45 76.5,21.5 76.5,23.5 78.3,24.6 78.75,24.85 81,25.75L81,31.9Q78.85,31.55 77.9,29.8 77.75,29.5 77.4,29.4 77.05,29.3 76.8,29.45 76.55,29.65 76.5,30 76.4,30.35 76.6,30.6 78.1,33.05 81,33.4L81,35Q81,35.3 81.25,35.55 81.45,35.75 81.75,35.75 82.05,35.75 82.3,35.55 82.5,35.3 82.5,35L82.5,33.45Q84.25,33.2 85.45,32.3 87,31 87,29 87,26.95 85.2,25.85 84.7,25.55 82.5,24.7L82.5,18.55Q84.6,18.9 85.6,20.6 85.75,20.9 86.1,21 86.45,21.15 86.7,20.95 86.95,20.8 87.05,20.45 87.1,20.1 86.9,19.85 85.4,17.4 82.5,17.05L82.5,15.5Q82.5,14.75 81.75,14.75 M81,24.15Q79.8,23.75 79.05,23.3 78,22.7 78,21.5 78,20.2 79.05,19.3 80.05,18.6 81,18.55L81,24.15 M84.45,27.15Q85.5,27.75 85.5,29 85.5,30.3 84.45,31.1 83.65,31.75 82.5,31.9L82.5,26.3Q83.7,26.7 84.45,27.15"/></g><defs/></svg>